<svg width="42" height="42" viewBox="0 0 42 42" fill="none" xmlns="http://www.w3.org/2000/svg">
<path d="M13.8724 17.3033C14.2558 14.8022 15.0473 12.3562 16.2333 10.0728C15.6817 10.321 15.1411 10.6133 14.6171 10.9498C12.8188 12.108 11.426 13.655 10.4772 15.4116C11.5446 16.1837 12.6837 16.8152 13.8724 17.3033V17.3033ZM15.8941 26.4642C19.3803 27.672 23.2361 27.6913 26.8243 26.4008C27.2353 23.8996 27.1994 21.3571 26.7167 18.8807C24.593 19.7135 22.3645 20.1299 20.1387 20.1299C18.4839 20.1299 16.8346 19.8983 15.2349 19.4488C15.0804 21.801 15.2983 24.1754 15.8941 26.4642ZM27.8145 16.6388C29.0721 15.9742 30.2333 15.1579 31.2731 14.2065C29.53 11.7247 27.0174 10.0784 24.2703 9.38067C25.8948 11.6254 27.0808 14.0824 27.8145 16.6388ZM28.4571 18.0975C28.3743 18.1417 28.2888 18.1775 28.2061 18.2189C28.7219 20.6677 28.8349 23.1854 28.5343 25.6755C28.8018 25.5431 29.0639 25.408 29.3259 25.2619C30.8925 24.3822 32.2853 23.2709 33.4795 21.9555C33.6036 19.8045 33.1651 17.6039 32.1115 15.5881C31.0055 16.5671 29.781 17.4109 28.4571 18.0975ZM15.4004 17.8438C18.9611 18.911 22.8306 18.7566 26.3527 17.3199C25.6025 14.576 24.2979 11.948 22.4445 9.59852C22.2928 9.40549 22.1356 9.21245 21.9756 9.02218C20.8227 8.95324 19.6561 9.04424 18.5115 9.30621C16.8622 11.9342 15.8196 14.8491 15.4004 17.8438V17.8438ZM26.4465 28.2015C24.7475 28.7117 23.0044 28.9626 21.2696 28.9626C19.6423 28.9626 18.0261 28.742 16.4622 28.309C17.0525 29.9636 17.8468 31.5603 18.848 33.0494C18.9031 33.1321 18.9611 33.2121 19.0162 33.2921C20.8365 33.6313 22.7368 33.5596 24.5627 33.0467C25.3984 31.4886 26.0217 29.8616 26.4465 28.2015ZM14.0903 25.7196C13.6297 23.4887 13.4918 21.1999 13.6821 18.9359C12.3251 18.4174 11.0233 17.7308 9.80426 16.8814C9.20024 18.4671 8.92995 20.1685 9.01545 21.8727C10.4745 23.5135 12.2038 24.8041 14.0903 25.7196ZM30.1064 26.649C29.4914 26.9937 28.8625 27.297 28.2254 27.5645C27.9 29.1391 27.4035 30.6944 26.7388 32.2028C27.1249 32.007 27.5083 31.7919 27.8807 31.552C30.4898 29.8726 32.2467 27.3687 33.0327 24.6C32.1308 25.3749 31.1545 26.0616 30.1064 26.649ZM14.5812 27.6775C12.7278 26.9357 10.9875 25.8741 9.43743 24.5201C9.76013 25.681 10.2593 26.8144 10.9461 27.8816C12.3831 30.1125 14.424 31.7202 16.716 32.6303C15.8058 31.0556 15.0942 29.39 14.5812 27.6775V27.6775Z" fill="#383636"/>
</svg>
